<?xml version="1.0" encoding="utf-8"?>
<!-- Generator: Adobe Illustrator 18.0.0, SVG Export Plug-In . SVG Version: 6.00 Build 0)  -->
<!DOCTYPE svg PUBLIC "-//W3C//DTD SVG 1.1//EN" "http://www.w3.org/Graphics/SVG/1.1/DTD/svg11.dtd">
<svg version="1.1" id="Layer_1" xmlns="http://www.w3.org/2000/svg" xmlns:xlink="http://www.w3.org/1999/xlink" x="0px" y="0px"
	 width="800px" height="600px" viewBox="0 0 800 600" enable-background="new 0 0 800 600" xml:space="preserve">
<g>
	<rect fill="#37235E" width="800" height="600"/>
	<g>
		<g>
			<path fill="#424B8D" d="M507,394.6l-0.1,0.1l-32.7,32.7l-0.1,0.1l-0.1,0.1l-32.7,32.7l-0.1,0.1l-0.1,0.1l-19.8,19.8
				c0.6,0.5,1.2,1,1.8,1.5l19.7-19.7l0.1-0.1l0.1-0.1l32.7-32.7l0.1-0.1l0.1-0.1l32.7-32.7l0.1-0.1l0.1-0.1l0.5-0.5
				c-0.5-0.6-1-1.2-1.5-1.8l-0.6,0.6L507,394.6z"/>
			<path fill="#424B8D" d="M479.6,433l-0.1,0.1l-0.1,0.1L446.7,466l-0.1,0.1l-0.1,0.1l-19.1,19.1c0.7,0.4,1.3,0.9,2,1.3l18.7-18.7
				l0.1-0.1l0.1-0.1l32.7-32.7l0.1-0.1l0.1-0.1l32.5-32.5c-0.4-0.7-0.8-1.3-1.3-2l-0.1,0.1L479.6,433z"/>
			<path fill="#424B8D" d="M496,449.6l-0.1,0.1l-32.7,32.7l-0.1,0.1l-0.1,0.1l-12,12c1,0.2,1.9,0.3,2.9,0.4l10.8-10.8l0.1-0.1
				l0.1-0.1l32.7-32.7l0.1-0.1l0.1-0.1l24.5-24.5c-0.1-1-0.3-1.9-0.4-2.9l-25.8,25.8L496,449.6z"/>
			<path fill="#424B8D" d="M485,438.6l-0.1,0.1l-32.7,32.7l-0.1,0.1l-0.1,0.1l-17.6,17.6c0.7,0.4,1.5,0.7,2.3,1l17-17l0.1-0.1
				l0.1-0.1l32.7-32.7l0.1-0.1l0.1-0.1l30.8-30.8c-0.3-0.8-0.7-1.5-1-2.3l-31.4,31.4L485,438.6z"/>
			<path fill="#424B8D" d="M490.5,444.1l-0.1,0.1L457.6,477l-0.1,0.1l-0.1,0.1l-15.3,15.3c0.8,0.3,1.7,0.5,2.5,0.8l14.4-14.4
				l0.1-0.1l0.1-0.1l32.7-32.7l0.1-0.1l0.1-0.1l28.2-28.2c-0.2-0.8-0.5-1.7-0.8-2.5L490.6,444L490.5,444.1z"/>
			<path fill="#424B8D" d="M507,460.6l-0.1,0.1l-32.7,32.7l-0.1,0.1l-0.1,0.1l-0.8,0.8c0.5-0.1,1-0.2,1.5-0.3c0.1,0,0.1,0,0.2,0
				c0.9-0.2,1.7-0.4,2.6-0.6l31.1-31.1l0.1-0.1l0.1-0.1l11.9-11.9c0.4-1.4,0.7-2.9,1-4.3l-14.5,14.5L507,460.6z"/>
			<path fill="#424B8D" d="M512.5,466.1l-0.1,0.1l-22.3,22.3c3.3-1.8,6.6-3.9,9.6-6.3l9.7-9.7c1.4-1.8,2.8-3.7,4-5.6
				c0,0,0.1-0.1,0.1-0.1c0.8-1.3,1.5-2.6,2.2-3.9l-3.1,3.1L512.5,466.1z"/>
			<path fill="#424B8D" d="M501.5,455.1l-0.1,0.1L468.6,488l-0.1,0.1l-0.1,0.1l-7.4,7.4c1.1,0,2.2,0,3.4-0.1l5.7-5.7l0.1-0.1
				l0.1-0.1l32.7-32.7l0.1-0.1l0.1-0.1l19.4-19.4c0.1-1.1,0.1-2.2,0.1-3.4L501.6,455L501.5,455.1z"/>
			<path fill="#424B8D" d="M431.7,385.3l0.1-0.1l8.7-8.7c-1.9,0.7-3.8,1.5-5.7,2.4l-4.7,4.7l-0.1,0.1l-0.1,0.1l-24,24
				c-0.9,1.9-1.7,3.7-2.4,5.7l28-28L431.7,385.3z"/>
			<path fill="#424B8D" d="M431.7,451.3l0.1-0.1l32.7-32.7l0.1-0.1l0.1-0.1l32.7-32.7l0.1-0.1l0.1-0.1l0.2-0.2
				c-0.6-0.4-1.2-0.9-1.8-1.3c-0.1,0-0.1-0.1-0.2-0.1l-0.1,0.1l-0.1,0.1l-32.7,32.7l-0.1,0.1l-0.1,0.1l-32.7,32.7l-0.1,0.1l-0.1,0.1
				l-19.2,19.2c0.4,0.6,0.9,1.3,1.4,1.9l19.5-19.5L431.7,451.3z"/>
			<path fill="#424B8D" d="M420.7,440.3l0.1-0.1l32.7-32.7l0.1-0.1l0.1-0.1l30.1-30.1c-0.8-0.3-1.6-0.6-2.4-0.9l-29.3,29.3l-0.1,0.1
				l-0.1,0.1l-32.7,32.7l-0.1,0.1l-0.1,0.1l-15.6,15.6c0.3,0.8,0.6,1.6,0.9,2.4l16.3-16.3L420.7,440.3z"/>
			<path fill="#424B8D" d="M409.7,429.3l0.1-0.1l32.7-32.7l0.1-0.1l0.1-0.1L466,373c-1-0.1-2.1-0.1-3.1-0.2l-21.7,21.7l-0.1,0.1
				l-0.1,0.1l-32.7,32.7l-0.1,0.1l-0.1,0.1l-8,8c0,1,0.1,2.1,0.2,3.1l9.4-9.4L409.7,429.3z"/>
			<path fill="#424B8D" d="M426.2,445.8l0.1-0.1l32.7-32.7l0.1-0.1l0.1-0.1l32.1-32.1c-0.7-0.4-1.4-0.8-2.2-1.1L457.6,411l-0.1,0.1
				l-0.1,0.1L424.7,444l-0.1,0.1l-0.1,0.1L406.6,462c0.4,0.7,0.7,1.4,1.1,2.2l18.3-18.3L426.2,445.8z"/>
			<path fill="#424B8D" d="M415.2,434.8l0.1-0.1l32.7-32.7l0.1-0.1l0.1-0.1l27.2-27.2c-0.9-0.2-1.8-0.4-2.7-0.6L446.7,400l-0.1,0.1
				l-0.1,0.1L413.7,433l-0.1,0.1l-0.1,0.1l-12.4,12.4c0.2,0.9,0.4,1.8,0.6,2.7l13.5-13.5L415.2,434.8z"/>
			<path fill="#424B8D" d="M404.2,423.8l0.1-0.1l32.7-32.7l0.1-0.1l0.1-0.1l17.5-17.5c-1.3,0.1-2.6,0.3-3.8,0.5L435.7,389l-0.1,0.1
				l-0.1,0.1L402.7,422l-0.1,0.1l-0.1,0.1l-1.6,1.6c-0.2,1.3-0.4,2.5-0.5,3.8l3.8-3.8L404.2,423.8z"/>
			<path fill="#424B8D" d="M437.2,456.8l0.1-0.1l32.7-32.7l0.1-0.1l0.1-0.1l32.7-32.7l0.1-0.1l0.1-0.1l0.7-0.7
				c-0.6-0.5-1.1-1.1-1.7-1.6l-0.6,0.6l-0.1,0.1l-0.1,0.1L468.6,422l-0.1,0.1l-0.1,0.1L435.7,455l-0.1,0.1l-0.1,0.1l-19.9,19.9
				c0.5,0.6,1,1.1,1.6,1.7l19.9-19.9L437.2,456.8z"/>
		</g>
	</g>
	<circle fill="#E14B8A" cx="99.2" cy="116.5" r="59.3"/>
	<path fill="#F7941E" d="M112.7,68.6c-4.1,4.1-4.1,10.7,0,14.9v0c4.1,4.1,10.7,4.1,14.9,0L211,0h-29.7L112.7,68.6z"/>
	<path fill="#68C9E2" d="M195.7,59.1c-4.1-4.1-10.7-4.1-14.9,0l-74.5,74.5c-4.1,4.1-4.1,10.7,0,14.9c4.1,4.1,10.7,4.1,14.9,0
		L195.7,74C199.8,69.9,199.8,63.2,195.7,59.1z"/>
	<path fill="#F7941E" d="M279.6,531.4c4.1-4.1,4.1-10.7,0-14.9s-10.7-4.1-14.9,0L181.3,600H211L279.6,531.4z"/>
	<path fill="#F7941E" d="M291.7,504.4c4.1,4.1,10.7,4.1,14.9,0l53.6-53.6c4.1-4.1,4.1-10.7,0-14.9c-4.1-4.1-10.7-4.1-14.9,0
		l-53.6,53.6C287.6,493.7,287.6,500.3,291.7,504.4L291.7,504.4z"/>
	<path fill="#F7941E" d="M652.2,303.7c4.1,4.1,10.7,4.1,14.9,0l133-133V141L652.2,288.8C648.1,292.9,648.1,299.6,652.2,303.7z"/>
	<path fill="#F7941E" d="M17.9,151.6c4.1-4.1,4.1-10.7,0-14.9v0c-4.1-4.1-10.7-4.1-14.9,0l-3,3v29.7L17.9,151.6z"/>
	<path fill="#F7941E" d="M592.1,378.6l47.6-47.6c4.1-4.1,4.1-10.7,0-14.9v0c-4.1-4.1-10.7-4.1-14.9,0l-47.6,47.6
		c-4.1,4.1-4.1,10.7,0,14.9C581.3,382.7,588,382.7,592.1,378.6z"/>
	<path fill="#68C9E2" d="M694.4,15.8c-5.4-5.4-14.1-5.4-19.5,0l-62.6,62.6c-5.4,5.4-5.4,14.1,0,19.5s14.1,5.4,19.5,0l62.6-62.6
		C699.8,30,699.8,21.2,694.4,15.8L694.4,15.8z"/>
	<path fill="#68C9E2" d="M319.1,294.6c-5.4,5.4-5.4,14.1,0,19.5c5.4,5.4,14.1,5.4,19.5,0l13.1-13.1c5.4-5.4,5.4-14.1,0-19.5
		c-5.4-5.4-14.1-5.4-19.5,0L319.1,294.6z"/>
	<path fill="#FFFFFF" d="M204,309.2L488.3,24.9c1.8-1.8,1.8-4.7,0-6.5s-4.7-1.8-6.5,0L197.5,302.7c-1.8,1.8-1.8,4.7,0,6.5
		C199.3,311,202.2,311,204,309.2z"/>
	<polygon fill="#FFFFFF" points="800,379.3 800,366.3 566.3,600 579.3,600 	"/>
	<path fill="#FFFFFF" d="M654.6,188.3c-1.8,1.8-1.8,4.7,0,6.5v0c1.8,1.8,4.7,1.8,6.5,0L800,56V43L654.6,188.3z"/>
	<path fill="#FFFFFF" d="M566.1,0L479,87.2c-1.8,1.8-1.8,4.7,0,6.5v0c1.8,1.8,4.7,1.8,6.5,0L579.2,0H566.1z"/>
	<polygon fill="#FFFFFF" points="43,0 0,43 0,56 56,0 	"/>
	<path fill="#FFFFFF" d="M55.3,323c1.8-1.8,1.8-4.7,0-6.5c-1.8-1.8-4.7-1.8-6.5,0L0,365.3v13L55.3,323z"/>
	<path fill="#FFFFFF" d="M128,237.3l-57.6,57.6c-1.8,1.8-1.8,4.7,0,6.5s4.7,1.8,6.5,0l57.6-57.6c1.8-1.8,1.8-4.7,0-6.5l0,0
		C132.7,235.5,129.8,235.5,128,237.3z"/>
	<path fill="#E14B8A" d="M32,268.2c-1.8-1.8-4.7-1.8-6.5,0L0,293.7v13l32-32C33.8,272.9,33.8,270,32,268.2z"/>
	<path fill="#E14B8A" d="M774.5,332.3l25.5-25.5v-13l-32,32c-1.8,1.8-1.8,4.7,0,6.5C769.8,334.1,772.7,334.1,774.5,332.3z"/>
	<path fill="#424B8D" d="M22.3,533c-5.3,5.3-5.3,13.8,0,19.1v0c5.3,5.3,13.8,5.3,19.1,0l139.3-139.3c5.3-5.3,5.3-13.8,0-19.1h0
		c-5.3-5.3-13.8-5.3-19.1,0l-17.3,17.3c-5.3,5.3-13.8,5.3-19.1,0s-5.3-13.8,0-19.1l47.4-47.4c5.3-5.3,5.3-13.8,0-19.1
		s-13.8-5.3-19.1,0l-77.1,77.1c-5.3,5.3-13.8,5.3-19.1,0c-5.3-5.3-5.3-13.8,0-19.1l27.5-27.5c5.3-5.3,5.3-13.8,0-19.1h0
		c-5.3-5.3-13.8-5.3-19.1,0L0,402.5V517l55.8-55.8c5.3-5.3,13.8-5.3,19.1,0s5.3,13.8,0,19.1L22.3,533z"/>
	<path fill="#68C9E2" d="M612.6,174.1L612.6,174.1c-5.3-5.3-13.8-5.3-19.1,0l-17.3,17.3c-5.3,5.3-13.8,5.3-19.1,0
		c-5.3-5.3-5.3-13.8,0-19.1l47.4-47.4c5.3-5.3,5.3-13.8,0-19.1c-5.3-5.3-13.8-5.3-19.1,0l-77.1,77.1c-5.3,5.3-13.8,5.3-19.1,0
		c-5.3-5.3-5.3-13.8,0-19.1l27.5-27.5c5.3-5.3,5.3-13.8,0-19.1l0,0c-5.3-5.3-13.8-5.3-19.1,0L358.3,256.6c-5.3,5.3-5.3,13.8,0,19.1
		v0c5.3,5.3,13.8,5.3,19.1,0l13.5-13.5c5.3-5.3,13.8-5.3,19.1,0l0,0c5.3,5.3,5.3,13.8,0,19.1l-63.2,63.2c-5.3,5.3-5.3,13.8,0,19.1
		s13.8,5.3,19.1,0l121.8-121.8c5.3-5.3,13.8-5.3,19.1,0c5.3,5.3,5.3,13.8,0,19.1l-52.6,52.6c-5.3,5.3-5.3,13.8,0,19.1v0
		c5.3,5.3,13.8,5.3,19.1,0l139.3-139.3C617.8,188,617.8,179.4,612.6,174.1z"/>
	<path fill="#424B8D" d="M800,402.5l-73.6,73.6c-5.3,5.3-5.3,13.8,0,19.1s13.8,5.3,19.1,0l13.5-13.5c5.3-5.3,13.8-5.3,19.1,0h0
		c5.3,5.3,5.3,13.8,0,19.1l-63.2,63.2c-5.3,5.3-5.3,13.8,0,19.1c5.3,5.3,13.8,5.3,19.1,0l66-66V402.5z"/>
	<path fill="#E14B8A" d="M279.6,154.6l10.9-10.9c5.1-5.1,5.1-13.4,0-18.5c-5.1-5.1-13.4-5.1-18.5,0l-10.9,10.9
		c-5.1,5.1-5.1,13.4,0,18.5l0,0C266.2,159.7,274.5,159.7,279.6,154.6z"/>
	<path fill="#E14B8A" d="M308.8,33c5.1,5.1,13.4,5.1,18.5,0l14.2-14.2c5.1-5.1,13.4-5.1,18.5,0v0c5.1,5.1,5.1,13.4,0,18.5l-60,60
		c-5.1,5.1-5.1,13.4,0,18.5c5.1,5.1,13.4,5.1,18.5,0l27.3-27.3c5.1-5.1,13.4-5.1,18.5,0s13.4,5.1,18.5,0L471.3,0h-148l-14.5,14.5
		C303.7,19.6,303.7,27.8,308.8,33z"/>
	<path fill="#E14B8A" d="M547,487.2l-31.1,31.1c-5.1,5.1-5.1,13.4,0,18.5c5.1,5.1,13.4,5.1,18.5,0l31.1-31.1
		c5.1-5.1,5.1-13.4,0-18.5v0C560.4,482.1,552.1,482.1,547,487.2z"/>
	<path fill="#E14B8A" d="M507.6,563.7c5.1-5.1,5.1-13.4,0-18.5l0,0c-5.1-5.1-13.4-5.1-18.5,0l-31,31c-5.1,5.1-13.4,5.1-18.5,0
		c-5.1-5.1-5.1-13.4,0-18.5l8.7-8.7c5.1-5.1,5.1-13.4,0-18.5s-5.1-13.4,0-18.5l48-48c5.1-5.1,5.1-13.4,0-18.5
		c-5.1-5.1-13.4-5.1-18.5,0L323.2,600h148L507.6,563.7z"/>
	<g>
		<g>
			<path fill="#68C9E2" d="M166.7,431.2l-0.1,0.1l-42,42l-0.1,0.1l-0.1,0.1l-42,42l-0.1,0.1l-0.1,0.1l-25.5,25.5
				c0.8,0.7,1.5,1.3,2.3,1.9L84,518.1l0.1-0.1l0.1-0.1l42-42l0.1-0.1l0.1-0.1l42-42l0.1-0.1l0.1-0.1l0.6-0.6
				c-0.6-0.8-1.3-1.5-1.9-2.3l-0.8,0.8L166.7,431.2z"/>
			<path fill="#68C9E2" d="M131.6,480.4l-0.1,0.1l-0.1,0.1l-42,42l-0.1,0.1l-0.1,0.1l-24.5,24.5c0.9,0.6,1.7,1.1,2.6,1.7l24.1-24.1
				l0.1-0.1l0.1-0.1l42-42l0.1-0.1l0.1-0.1l41.7-41.7c-0.5-0.9-1.1-1.7-1.7-2.6l-0.1,0.1L131.6,480.4z"/>
			<path fill="#68C9E2" d="M152.6,501.7l-0.1,0.1l-42,42l-0.1,0.1l-0.1,0.1l-15.4,15.4c1.2,0.2,2.5,0.4,3.7,0.5l13.9-13.9l0.1-0.1
				l0.1-0.1l42-42l0.1-0.1l0.1-0.1l31.5-31.5c-0.2-1.2-0.3-2.5-0.5-3.7l-33.1,33.1L152.6,501.7z"/>
			<path fill="#68C9E2" d="M138.5,487.6l-0.1,0.1l-42,42l-0.1,0.1l-0.1,0.1l-22.6,22.6c1,0.5,1.9,0.9,2.9,1.3l21.9-21.9l0.1-0.1
				l0.1-0.1l42-42l0.1-0.1l0.1-0.1l39.5-39.5c-0.4-1-0.9-1.9-1.3-2.9l-40.3,40.3L138.5,487.6z"/>
			<path fill="#68C9E2" d="M145.5,494.7l-0.1,0.1l-42,42l-0.1,0.1l-0.1,0.1l-19.7,19.7c1.1,0.4,2.2,0.7,3.2,1l18.5-18.5l0.1-0.1
				l0.1-0.1l42-42l0.1-0.1l0.1-0.1l36.2-36.2c-0.3-1.1-0.6-2.2-1-3.2l-37.3,37.3L145.5,494.7z"/>
			<path fill="#68C9E2" d="M166.7,515.9l-0.1,0.1l-42,42l-0.1,0.1l-0.1,0.1l-1,1c0.6-0.1,1.3-0.3,1.9-0.4c0.1,0,0.2,0,0.2-0.1
				c1.1-0.2,2.2-0.5,3.3-0.8l40-40l0.1-0.1l0.1-0.1l15.3-15.3c0.5-1.8,0.9-3.7,1.3-5.5l-18.7,18.7L166.7,515.9z"/>
			<path fill="#68C9E2" d="M173.8,522.9l-0.1,0.1L145,551.7c4.3-2.3,8.4-5,12.3-8.1l12.4-12.4c1.8-2.3,3.5-4.7,5.1-7.2
				c0-0.1,0.1-0.1,0.1-0.2c1-1.6,2-3.3,2.9-5l-3.9,3.9L173.8,522.9z"/>
			<path fill="#68C9E2" d="M159.7,508.8l-0.1,0.1l-42,42l-0.1,0.1l-0.1,0.1l-9.5,9.5c1.4,0,2.9,0,4.3-0.1l7.3-7.3l0.1-0.1l0.1-0.1
				l42-42l0.1-0.1l0.1-0.1l25-25c0.1-1.4,0.1-2.9,0.1-4.3l-27.2,27.2L159.7,508.8z"/>
			<path fill="#68C9E2" d="M70.1,419.2l0.1-0.1l11.2-11.2c-2.5,0.9-4.9,1.9-7.3,3l-6.1,6.1l-0.1,0.1l-0.1,0.1L37.1,448
				c-1.1,2.4-2.2,4.8-3,7.3l35.9-35.9L70.1,419.2z"/>
			<path fill="#68C9E2" d="M70.1,503.9l0.1-0.1l42-42l0.1-0.1l0.1-0.1l42-42l0.1-0.1l0.1-0.1l0.3-0.3c-0.7-0.6-1.5-1.1-2.3-1.6
				c-0.1,0-0.1-0.1-0.2-0.1l-0.1,0.1l-0.1,0.1l-42,42l-0.1,0.1l-0.1,0.1l-42,42l-0.1,0.1l-0.1,0.1l-24.7,24.7
				c0.6,0.8,1.2,1.7,1.8,2.5l25-25L70.1,503.9z"/>
			<path fill="#68C9E2" d="M56,489.8l0.1-0.1l42-42l0.1-0.1l0.1-0.1l38.6-38.6c-1-0.4-2.1-0.8-3.1-1.1l-37.6,37.6l-0.1,0.1l-0.1,0.1
				l-42,42l-0.1,0.1l-0.1,0.1l-20,20c0.4,1,0.7,2.1,1.1,3.1l21-21L56,489.8z"/>
			<path fill="#68C9E2" d="M41.9,475.6l0.1-0.1l42-42l0.1-0.1l0.1-0.1l29.8-29.8c-1.3-0.1-2.7-0.2-4-0.2l-27.8,27.8l-0.1,0.1
				l-0.1,0.1l-42,42l-0.1,0.1l-0.1,0.1l-10.2,10.2c0,1.3,0.1,2.7,0.2,4l12.1-12.1L41.9,475.6z"/>
			<path fill="#68C9E2" d="M63,496.8l0.1-0.1l42-42l0.1-0.1l0.1-0.1l41.1-41.1c-0.9-0.5-1.8-1-2.8-1.5l-40.5,40.5l-0.1,0.1l-0.1,0.1
				l-42,42l-0.1,0.1l-0.1,0.1l-22.9,22.9c0.5,0.9,1,1.8,1.5,2.8L62.9,497L63,496.8z"/>
			<path fill="#68C9E2" d="M48.9,482.7l0.1-0.1l42-42l0.1-0.1l0.1-0.1l34.9-34.9c-1.2-0.3-2.3-0.5-3.5-0.7l-33.6,33.6l-0.1,0.1
				l-0.1,0.1l-42,42l-0.1,0.1l-0.1,0.1l-15.9,15.9c0.2,1.2,0.5,2.3,0.7,3.5l17.3-17.3L48.9,482.7z"/>
			<path fill="#68C9E2" d="M34.8,468.6l0.1-0.1l42-42l0.1-0.1l0.1-0.1l22.5-22.5c-1.6,0.2-3.3,0.4-4.9,0.7L75.2,424l-0.1,0.1
				l-0.1,0.1l-42,42l-0.1,0.1l-0.1,0.1l-2,2c-0.3,1.6-0.5,3.3-0.7,4.9l4.8-4.8L34.8,468.6z"/>
			<path fill="#68C9E2" d="M77.1,510.9l0.1-0.1l42-42l0.1-0.1l0.1-0.1l42-42l0.1-0.1l0.1-0.1l0.9-0.9c-0.7-0.7-1.5-1.4-2.2-2
				l-0.8,0.8l-0.1,0.1l-0.1,0.1l-42,42l-0.1,0.1l-0.1,0.1l-42,42l-0.1,0.1l-0.1,0.1l-25.5,25.5c0.7,0.7,1.3,1.5,2,2.2L77,511.1
				L77.1,510.9z"/>
		</g>
	</g>
	<g>
		<path fill="#F7941E" d="M762.4,240.8L762.4,240.8l-25.8,25.8l-0.1,0.1l-0.1,0.1l-25.7,25.7l-0.1,0.1l-0.1,0.1l-15.5,15.5
			c0.5,0.4,0.9,0.8,1.4,1.2l15.4-15.4l0.1-0.1l0.1-0.1l25.7-25.7l0.1-0.1l0.1-0.1l25.7-25.7l0.1-0.1l0.1-0.1l0.4-0.4
			c-0.4-0.5-0.8-0.9-1.2-1.4L762.4,240.8L762.4,240.8z"/>
		<path fill="#F7941E" d="M740.9,270.8L740.9,270.8l-0.2,0.2l-25.7,25.7l-0.1,0.1l-0.1,0.1l-15,15c0.5,0.3,1,0.7,1.6,1l14.7-14.7
			l0.1-0.1l0.1-0.1l25.7-25.7l0.1-0.1l0.1-0.1l25.5-25.5c-0.3-0.5-0.7-1.1-1-1.6l-0.1,0.1L740.9,270.8z"/>
		<path fill="#F7941E" d="M753.8,283.9L753.8,283.9L728,309.6l-0.1,0.1l-0.1,0.1l-9.4,9.4c0.7,0.1,1.5,0.2,2.3,0.3l8.5-8.5l0.1-0.1
			l0.1-0.1l25.7-25.7l0.1-0.1l0.1-0.1l19.2-19.2c-0.1-0.8-0.2-1.5-0.3-2.3L753.8,283.9L753.8,283.9z"/>
		<path fill="#F7941E" d="M745.1,275.2L745.1,275.2L719.4,301l-0.1,0.1l-0.1,0.1L705.4,315c0.6,0.3,1.2,0.6,1.8,0.8l13.3-13.3
			l0.1-0.1l0.1-0.1l25.7-25.7l0.1-0.1l0.1-0.1l24.1-24.1c-0.3-0.6-0.5-1.2-0.8-1.8L745.1,275.2L745.1,275.2z"/>
		<path fill="#F7941E" d="M749.5,279.5L749.5,279.5l-25.8,25.8l-0.1,0.1l-0.1,0.1l-12,12c0.7,0.2,1.3,0.4,2,0.6l11.3-11.3l0.1-0.1
			l0.1-0.1l25.7-25.7l0.1-0.1l0.1-0.1l22.1-22.1c-0.2-0.7-0.4-1.3-0.6-2L749.5,279.5L749.5,279.5z"/>
		<path fill="#F7941E" d="M762.4,292.5L762.4,292.5l-25.8,25.8l-0.1,0.1l-0.1,0.1l-0.6,0.6c0.4-0.1,0.8-0.2,1.2-0.2c0,0,0.1,0,0.1,0
			c0.7-0.2,1.4-0.3,2-0.5l24.4-24.4l0.1-0.1l0.1-0.1l9.3-9.3c0.3-1.1,0.6-2.2,0.8-3.4L762.4,292.5L762.4,292.5z"/>
		<path fill="#F7941E" d="M766.7,296.8L766.7,296.8l-17.6,17.6c2.6-1.4,5.1-3,7.5-4.9l7.6-7.6c1.1-1.4,2.2-2.9,3.1-4.4
			c0,0,0-0.1,0.1-0.1c0.6-1,1.2-2,1.8-3L766.7,296.8L766.7,296.8z"/>
		<path fill="#F7941E" d="M758.1,288.2L758.1,288.2l-25.8,25.8l-0.1,0.1l-0.1,0.1l-5.8,5.8c0.9,0,1.8,0,2.6-0.1l4.5-4.5l0.1-0.1
			l0.1-0.1l25.7-25.7l0.1-0.1l0.1-0.1l15.2-15.2c0-0.9,0.1-1.8,0.1-2.6L758.1,288.2L758.1,288.2z"/>
		<path fill="#F7941E" d="M703.4,233.5L703.4,233.5l6.9-6.9c-1.5,0.5-3,1.2-4.4,1.9l-3.7,3.7l-0.1,0.1l-0.1,0.1L683.2,251
			c-0.7,1.5-1.3,2.9-1.9,4.4L703.4,233.5L703.4,233.5z"/>
		<path fill="#F7941E" d="M703.4,285.1L703.4,285.1l25.8-25.8l0.1-0.1l0.1-0.1l25.7-25.7l0.1-0.1l0.1-0.1l0.2-0.2
			c-0.5-0.3-0.9-0.7-1.4-1c0,0-0.1-0.1-0.1-0.1l-0.1,0.1l-0.1,0.1L728,257.9l-0.1,0.1l-0.1,0.1l-25.7,25.7l-0.1,0.1l-0.1,0.1
			L686.9,299c0.3,0.5,0.7,1,1.1,1.5L703.4,285.1L703.4,285.1z"/>
		<path fill="#F7941E" d="M694.8,276.5L694.8,276.5l25.8-25.8l0.1-0.1l0.1-0.1l23.6-23.6c-0.6-0.2-1.3-0.5-1.9-0.7l-23,23l-0.1,0.1
			l-0.1,0.1l-25.7,25.7l-0.1,0.1l-0.1,0.1l-12.2,12.2c0.2,0.6,0.5,1.3,0.7,1.9L694.8,276.5L694.8,276.5z"/>
		<path fill="#F7941E" d="M686.1,267.9L686.1,267.9l25.8-25.8l0.1-0.1l0.1-0.1l18.2-18.2c-0.8-0.1-1.6-0.1-2.5-0.1l-17,17l-0.1,0.1
			l-0.1,0.1l-25.7,25.7l-0.1,0.1l-0.1,0.1l-6.2,6.2c0,0.8,0.1,1.6,0.1,2.5L686.1,267.9L686.1,267.9z"/>
		<path fill="#F7941E" d="M699.1,280.8L699.1,280.8l25.8-25.8l0.1-0.1l0.1-0.1l25.1-25.1c-0.6-0.3-1.1-0.6-1.7-0.9l-24.7,24.7
			l-0.1,0.1l-0.1,0.1l-25.7,25.7l-0.1,0.1l-0.1,0.1l-14,14c0.3,0.6,0.6,1.1,0.9,1.7L699.1,280.8L699.1,280.8z"/>
		<path fill="#F7941E" d="M690.4,272.2L690.4,272.2l25.8-25.8l0.1-0.1l0.1-0.1l21.3-21.3c-0.7-0.2-1.4-0.3-2.1-0.5L715.1,245
			l-0.1,0.1l-0.1,0.1l-25.7,25.7l-0.1,0.1l-0.1,0.1l-9.7,9.7c0.1,0.7,0.3,1.4,0.5,2.1L690.4,272.2L690.4,272.2z"/>
		<path fill="#F7941E" d="M681.8,263.6L681.8,263.6l25.8-25.8l0.1-0.1l0.1-0.1l13.7-13.7c-1,0.1-2,0.2-3,0.4l-12,12l-0.1,0.1
			l-0.1,0.1l-25.7,25.7l-0.1,0.1l-0.1,0.1l-1.2,1.2c-0.2,1-0.3,2-0.4,3L681.8,263.6L681.8,263.6z"/>
		<path fill="#F7941E" d="M707.7,289.5L707.7,289.5l25.8-25.8l0.1-0.1l0.1-0.1l25.7-25.7l0.1-0.1l0.1-0.1l0.5-0.5
			c-0.4-0.4-0.9-0.8-1.3-1.2l-0.5,0.5l-0.1,0.1l-0.1,0.1l-25.7,25.7l-0.1,0.1l-0.1,0.1l-25.7,25.7l-0.1,0.1l-0.1,0.1l-15.6,15.6
			c0.4,0.5,0.8,0.9,1.2,1.3L707.7,289.5L707.7,289.5z"/>
	</g>
	<g>
		<path fill="#FFFFFF" d="M253.4,45.1L253.4,45.1l-25.8,25.8l-0.1,0.1l-0.1,0.1l-25.7,25.7l-0.1,0.1l-0.1,0.1l-15.5,15.5
			c0.5,0.4,0.9,0.8,1.4,1.2l15.4-15.4l0.1-0.1l0.1-0.1l25.7-25.7l0.1-0.1l0.1-0.1l25.7-25.7l0.1-0.1l0.1-0.1l0.4-0.4
			c-0.4-0.5-0.8-0.9-1.2-1.4L253.4,45.1L253.4,45.1z"/>
		<path fill="#FFFFFF" d="M232,75.1L232,75.1l-0.2,0.2L206.1,101l-0.1,0.1l-0.1,0.1l-15,15c0.5,0.3,1,0.7,1.6,1l14.7-14.7l0.1-0.1
			l0.1-0.1l25.7-25.7l0.1-0.1l0.1-0.1L258.7,51c-0.3-0.5-0.7-1.1-1-1.6l-0.1,0.1L232,75.1z"/>
		<path fill="#FFFFFF" d="M244.8,88.1L244.8,88.1L219,113.9L219,114l-0.1,0.1l-9.4,9.4c0.7,0.1,1.5,0.2,2.3,0.3l8.5-8.5l0.1-0.1
			l0.1-0.1L246,89.5l0.1-0.1l0.1-0.1l19.2-19.2c-0.1-0.8-0.2-1.5-0.3-2.3L244.8,88.1L244.8,88.1z"/>
		<path fill="#FFFFFF" d="M236.2,79.5L236.2,79.5l-25.8,25.8l-0.1,0.1l-0.1,0.1l-13.8,13.8c0.6,0.3,1.2,0.6,1.8,0.8l13.3-13.3
			l0.1-0.1l0.1-0.1l25.7-25.7l0.1-0.1l0.1-0.1l24.1-24.1c-0.3-0.6-0.5-1.2-0.8-1.8L236.2,79.5L236.2,79.5z"/>
		<path fill="#FFFFFF" d="M240.5,83.8L240.5,83.8l-25.8,25.8l-0.1,0.1l-0.1,0.1l-12,12c0.7,0.2,1.3,0.4,2,0.6l11.3-11.3l0.1-0.1
			l0.1-0.1l25.7-25.7l0.1-0.1l0.1-0.1L264,63c-0.2-0.7-0.4-1.3-0.6-2L240.5,83.8L240.5,83.8z"/>
		<path fill="#FFFFFF" d="M253.4,96.8L253.4,96.8l-25.8,25.8l-0.1,0.1l-0.1,0.1l-0.6,0.6c0.4-0.1,0.8-0.2,1.2-0.2c0,0,0.1,0,0.1,0
			c0.7-0.2,1.4-0.3,2-0.5l24.4-24.4l0.1-0.1l0.1-0.1l9.3-9.3c0.3-1.1,0.6-2.2,0.8-3.4L253.4,96.8L253.4,96.8z"/>
		<path fill="#FFFFFF" d="M257.7,101.1L257.7,101.1l-17.6,17.6c2.6-1.4,5.1-3,7.5-4.9l7.6-7.6c1.1-1.4,2.2-2.9,3.1-4.4
			c0,0,0-0.1,0.1-0.1c0.6-1,1.2-2,1.8-3L257.7,101.1L257.7,101.1z"/>
		<path fill="#FFFFFF" d="M249.1,92.5L249.1,92.5l-25.8,25.8l-0.1,0.1l-0.1,0.1l-5.8,5.8c0.9,0,1.8,0,2.6-0.1l4.5-4.5l0.1-0.1
			l0.1-0.1l25.7-25.7l0.1-0.1l0.1-0.1l15.2-15.2c0-0.9,0.1-1.8,0.1-2.6L249.1,92.5L249.1,92.5z"/>
		<path fill="#FFFFFF" d="M194.4,37.8L194.4,37.8l6.9-6.9c-1.5,0.5-3,1.2-4.4,1.9l-3.7,3.7l-0.1,0.1l-0.1,0.1l-18.8,18.8
			c-0.7,1.5-1.3,2.9-1.9,4.4L194.4,37.8L194.4,37.8z"/>
		<path fill="#FFFFFF" d="M194.4,89.4L194.4,89.4l25.8-25.8l0.1-0.1l0.1-0.1L246,37.8l0.1-0.1l0.1-0.1l0.2-0.2
			c-0.5-0.3-0.9-0.7-1.4-1c0,0-0.1-0.1-0.1-0.1l-0.1,0.1l-0.1,0.1L219,62.2l-0.1,0.1l-0.1,0.1l-25.7,25.7l-0.1,0.1l-0.1,0.1
			L178,103.3c0.3,0.5,0.7,1,1.1,1.5L194.4,89.4L194.4,89.4z"/>
		<path fill="#FFFFFF" d="M185.8,80.8L185.8,80.8l25.8-25.8l0.1-0.1l0.1-0.1l23.6-23.6c-0.6-0.2-1.3-0.5-1.9-0.7l-23,23l-0.1,0.1
			l-0.1,0.1l-25.7,25.7l-0.1,0.1l-0.1,0.1l-12.2,12.2c0.2,0.6,0.5,1.3,0.7,1.9L185.8,80.8L185.8,80.8z"/>
		<path fill="#FFFFFF" d="M177.2,72.2L177.2,72.2l25.8-25.8l0.1-0.1l0.1-0.1l18.2-18.2c-0.8-0.1-1.6-0.1-2.5-0.1l-17,17l-0.1,0.1
			l-0.1,0.1L176,70.8l-0.1,0.1l-0.1,0.1l-6.2,6.2c0,0.8,0.1,1.6,0.1,2.5L177.2,72.2L177.2,72.2z"/>
		<path fill="#FFFFFF" d="M190.1,85.1L190.1,85.1l25.8-25.8l0.1-0.1l0.1-0.1l25.1-25.1c-0.6-0.3-1.1-0.6-1.7-0.9l-24.7,24.7
			l-0.1,0.1l-0.1,0.1l-25.7,25.7l-0.1,0.1l-0.1,0.1l-14,14c0.3,0.6,0.6,1.1,0.9,1.7L190.1,85.1L190.1,85.1z"/>
		<path fill="#FFFFFF" d="M181.5,76.5L181.5,76.5l25.8-25.8l0.1-0.1l0.1-0.1l21.3-21.3c-0.7-0.2-1.4-0.3-2.1-0.5l-20.5,20.5
			l-0.1,0.1l-0.1,0.1l-25.7,25.7l-0.1,0.1l-0.1,0.1l-9.7,9.7c0.1,0.7,0.3,1.4,0.5,2.1L181.5,76.5L181.5,76.5z"/>
		<path fill="#FFFFFF" d="M172.9,67.9L172.9,67.9l25.8-25.8l0.1-0.1l0.1-0.1l13.7-13.7c-1,0.1-2,0.2-3,0.4l-12,12l-0.1,0.1l-0.1,0.1
			l-25.7,25.7l-0.1,0.1l-0.1,0.1l-1.2,1.2c-0.2,1-0.3,2-0.4,3L172.9,67.9L172.9,67.9z"/>
		<path fill="#FFFFFF" d="M198.7,93.7L198.7,93.7L224.5,68l0.1-0.1l0.1-0.1l25.7-25.7l0.1-0.1l0.1-0.1l0.5-0.5
			c-0.4-0.4-0.9-0.8-1.3-1.2l-0.5,0.5l-0.1,0.1l-0.1,0.1l-25.7,25.7l-0.1,0.1l-0.1,0.1l-25.7,25.7l-0.1,0.1l-0.1,0.1l-15.6,15.6
			c0.4,0.5,0.8,0.9,1.2,1.3L198.7,93.7L198.7,93.7z"/>
	</g>
	<circle fill="#F7941E" cx="425" cy="187.8" r="29.4"/>
	<circle fill="#68C9E2" cx="642.7" cy="509" r="29.4"/>
</g>
</svg>
